<svg xmlns="http://www.w3.org/2000/svg" width="256" height="256"><path fill="#1976D2" fill-opacity=".016" fill-rule="evenodd" d="M0 128.004v128.004l128.25-.254 128.25-.254.254-127.75L257.008 0H0zm.485.496c0 70.4.119 99.053.265 63.672s.146-92.98 0-128S.485 58.1.485 128.5"/><path fill="#1976D2" fill-opacity=".028" fill-rule="evenodd" d="M106.5 1.964C91.681 5.888 80.219 12.785 69.397 24.29 54.063 40.59 47.308 58.595 48.306 80.5c.559 12.257 2.816 20.874 8.248 31.5 6.783 13.265 82.229 142.461 83.756 143.424 1.041.657 2.545.665 4.387.023 2.598-.906 3.442-2.805 11.537-25.962 5.91-16.905 8.581-25.901 8.259-27.817-.262-1.557-7.413-14.38-15.891-28.496s-15.206-26.004-14.95-26.418c.256-.415 5.52-.754 11.697-.754 17.781 0 29.151-3.965 39.926-13.924 24.267-22.429 29.409-62.576 11.789-92.043C186.007 21.543 166.255 7.132 145 2.047c-11.206-2.68-28.551-2.718-38.5-.083m15 40.936c-16.081 7.461-18.665 30.126-4.653 40.814 18.13 13.828 43.488-2.474 38.192-24.553-2.637-10.989-11.948-18.181-23.485-18.139-3.752.014-7.575.728-10.054 1.878"/><path fill="#1976D2" fill-opacity=".098" fill-rule="evenodd" d="M110 1.486C85.914 6.909 67.247 21.551 56.435 43.5c-6.224 12.637-7.878 19.668-7.878 33.5 0 12.836 1.589 20.373 6.536 31 5.67 12.18 83.286 145.202 85.613 146.727 4.741 3.107 6.224.62 15.146-25.395 4.495-13.108 8.167-25.182 8.16-26.832-.009-2.079-4.781-10.943-15.55-28.888-8.545-14.239-15.37-26.389-15.166-27 .248-.743 3.498-1.003 9.788-.784 16.803.585 29.426-3.337 40.548-12.599C198.351 120.973 207 100.422 207 77.702c0-34.02-22.576-62.893-58-74.176-10.683-3.403-28.751-4.348-39-2.04m14.222 39.984c-5.874 1.834-10.658 5.714-13.95 11.314-3.639 6.192-3.894 16.477-.565 22.784 2.754 5.215 8.994 10.848 13.761 12.422 6.183 2.04 15.544.909 21.15-2.557 17.5-10.82 13.94-38.032-5.74-43.877-6.236-1.851-8.952-1.867-14.656-.086"/><path fill="#1976D2" fill-opacity=".168" fill-rule="evenodd" d="M113.831.955c-28.634 5.252-51.594 24.446-60.866 50.88-4.16 11.858-5.549 22.536-4.217 32.421 2.337 17.347 3.363 19.414 47.295 95.285 22.599 39.027 41.744 71.971 42.546 73.209 1.62 2.501 6.51 3.103 8.128 1 1.477-1.918 17.321-48.963 17.301-51.368-.01-1.165-6.855-13.54-15.212-27.5s-15.219-26.239-15.25-27.287c-.052-1.762.879-1.923 12.444-2.142 13.735-.261 19.677-1.62 29.261-6.693 7.558-4.002 18.202-15.281 22.937-24.305 6.019-11.473 8.211-20.881 8.26-35.455.051-15.103-1.111-20.316-7.483-33.577-9.922-20.651-30.301-36.721-54.475-42.958-7.216-1.861-24.197-2.698-30.669-1.51m7.662 41.396c-18.008 8.386-19.547 33.177-2.686 43.289 9.771 5.86 20.489 5.078 28.882-2.106 5.785-4.952 8.316-10.631 8.289-18.6-.028-8.183-2.308-13.294-8.275-18.547-7.678-6.758-17.212-8.226-26.21-4.036"/></svg>