<svg xmlns="http://www.w3.org/2000/svg" width="256" height="256"><path fill="#1976D2" fill-opacity=".016" fill-rule="evenodd" d="M0 128.004v128.004l128.25-.254 128.25-.254.254-127.75L257.008 0H0zm.485.496c0 70.4.119 99.053.265 63.672s.146-92.98 0-128S.485 58.1.485 128.5"/><path fill="#1976D2" fill-opacity=".028" fill-rule="evenodd" d="M106 2.052C79.587 8.89 58.218 29.823 50.558 56.362c-4.826 16.72-2.932 39.184 4.539 53.829 3.884 7.612 82.105 142.306 83.661 144.059 1.989 2.242 5.506 2.242 7.445 0 1.918-2.219 17.797-48.542 17.797-51.919 0-1.473-6.436-13.237-15.5-28.331-8.525-14.197-15.5-26.305-15.5-26.906 0-.727 3.784-1.094 11.29-1.094 21.654 0 36.211-6.581 47.357-21.407 9.422-12.535 14.035-25.458 15.03-42.111 1.266-21.203-5.618-39.902-20.499-55.676-11.914-12.63-26-20.876-42.36-24.798C132.712-.654 116.38-.635 106 2.052m20.753 39.072c-18.833 2.815-26.449 27.026-12.798 40.677 4.535 4.536 8.442 6.334 15.061 6.934C143.452 90.044 155 79.496 155 65.001c0-7.163-1.905-12.254-6.301-16.836-5.749-5.994-13.125-8.36-21.946-7.041"/><path fill="#1976D2" fill-opacity=".11" fill-rule="evenodd" d="M109.856 1.442c-15.21 3.188-27.018 9.744-38.844 21.57-8.868 8.869-13.517 15.711-17.685 26.031-8.051 19.931-6.717 44.482 3.454 63.557 9.549 17.909 82.032 141.734 83.404 142.482 1.023.558 2.633.557 4.103-.001 2.096-.797 3.591-4.335 11.179-26.456 7.435-21.676 8.61-25.959 7.773-28.331-.543-1.537-7.743-14.027-16.001-27.755s-14.816-25.478-14.574-26.108c.305-.794 3.27-1.008 9.637-.694 24.669 1.214 44.312-9.868 55.365-31.237 14.37-27.782 11.327-59.156-8.122-83.722-9.51-12.011-28.304-24.071-44.045-28.261-8.424-2.243-27.347-2.813-35.644-1.075m15.138 39.492C113.859 44.321 106.8 53.659 106.8 65c0 13.821 10.273 24 24.221 24 7.094 0 11.228-1.524 16.361-6.03 7.381-6.481 10.011-15.667 7.226-25.246-3.573-12.292-17.83-20.374-29.614-16.79"/><path fill="#1976D2" fill-opacity=".129" fill-rule="evenodd" d="M114.539 1.051C83.669 5.866 59.34 27.456 50.863 57.557c-3.119 11.075-3.136 27.752-.04 38.742 2.717 9.641 5.268 14.734 20.644 41.201 6.709 11.55 24.272 41.925 39.028 67.5s27.501 47.287 28.322 48.25c1.757 2.06 5.484 2.298 7.019.448 1.781-2.146 17.16-47.961 17.162-51.127.001-2.004-4.908-11.111-15.549-28.847-8.553-14.254-15.378-26.436-15.167-27.071.258-.773 4.309-1.202 12.301-1.302 13.474-.169 20.64-1.753 29.654-6.558C204.74 122.535 215.606 74.336 196.284 41c-4.791-8.265-19.942-23.61-27.834-28.191-16.74-9.716-37.697-14.287-53.911-11.758m5.656 41.539c-2.859 1.425-6.544 4.223-8.189 6.219-15.512 18.819 2.732 46.676 26.092 39.84 14.714-4.305 21.989-20.33 15.528-34.205-5.958-12.794-20.907-18.095-33.431-11.854"/></svg>