<svg width="42" height="36" viewBox="0 0 42 36" fill="none" xmlns="http://www.w3.org/2000/svg">
<path d="M31.5 14.3809C37.299 14.3809 42 19.0819 42 24.8809C41.9996 30.6795 37.2988 35.3809 31.5 35.3809C25.7013 35.3809 21.0004 30.6795 21 24.8809C21 19.0819 25.701 14.3809 31.5 14.3809ZM24.7666 0C27.5969 0.182727 29.2935 2.13098 29.7881 3.08203L31.8428 7.875H35.7227C36.0651 7.95112 36.75 8.30917 36.75 9.13086C36.7497 9.95229 36.065 10.3859 35.7227 10.5H34.2393C35.1522 11.2304 35.761 12.1743 35.9512 12.5547C28.2816 9.99817 22.788 14.4569 21 17.0059H15.9785C14.335 17.0972 13.2389 18.2614 12.8965 18.832L10.9561 22.3701H18.7178C18.444 22.9182 18.375 24.2723 18.375 24.8809H11.8691C12.0515 28.7153 9.73887 29.9787 8.55957 30.1309H4.79395C3.87308 30.06 3.17357 29.6888 2.6543 29.1992C1.27228 27.896 1.36913 25.7532 1.36914 23.8535C0.365302 22.9408 0.114416 21.7995 0.114258 21.3428C0.0381748 19.9352 -0.0683115 16.6401 0.114258 14.7227C0.297049 12.8056 1.86413 11.1088 2.625 10.5L0.913086 10.3857C0.608786 10.4238 0.000241533 10.2489 0 9.24512C0 8.2408 0.684941 7.91306 1.02734 7.875H4.90723L6.84766 3.42383C8.30853 0.776189 11.0326 0.0380596 12.2119 0H24.7666ZM31.5 19.6309C30.7438 19.6309 30.1311 20.2438 30.1309 21V23.5117H27.6191C26.8629 23.5119 26.25 24.1246 26.25 24.8809C26.2503 25.6368 26.8631 26.2498 27.6191 26.25H30.1309V28.7617C30.1314 29.5176 30.7439 30.1309 31.5 30.1309C32.2561 30.1309 32.8686 29.5176 32.8691 28.7617V26.25H35.3809C36.1369 26.2498 36.7497 25.6368 36.75 24.8809C36.75 24.1246 36.1371 23.5119 35.3809 23.5117H32.8691V21C32.8689 20.2438 32.2562 19.6309 31.5 19.6309ZM5.13574 15.75C4.44244 15.7501 3.88086 16.3125 3.88086 17.0059C3.88119 17.6989 4.44264 18.2607 5.13574 18.2607H9.24414C9.9373 18.2607 10.4997 17.6989 10.5 17.0059C10.5 16.3125 9.9375 15.75 9.24414 15.75H5.13574ZM12.2119 2.51074C11.413 2.6249 9.67867 3.24181 9.13086 4.79395L7.19043 9.13086H29.5596L27.6191 4.79395C27.3528 4.10917 26.3182 2.69336 24.3096 2.51074H12.2119Z" fill="#2DFF7B"/>
</svg>
