<svg width="226" height="363" viewBox="0 0 226 363" fill="none" xmlns="http://www.w3.org/2000/svg">
<path d="M123.179 205.922C145.979 208.922 170.519 205.742 188.989 191.322C215.899 170.292 227.429 134.872 224.759 101.582C219.739 38.8621 157.949 -6.26806 96.7995 0.711945C37.8495 7.45194 -6.26083 62.4722 0.729166 121.512C2.47917 136.362 7.3793 150.742 14.8693 163.672L127.779 358.722C130.979 364.252 139.199 363.452 141.269 357.392L163.639 291.882C164.919 288.132 164.479 284.032 162.439 280.642L120.229 210.322C118.949 208.212 120.72 205.592 123.17 205.912L123.179 205.922ZM118.42 126.922C99.0696 127.062 83.2696 111.482 83.1296 92.1421C82.9896 72.7921 98.5693 56.9921 117.909 56.8521C137.259 56.7121 153.059 72.2924 153.199 91.6324C153.339 110.982 137.76 126.782 118.42 126.922Z" fill="#2EFF7B"/>
</svg>
