<svg width="140" height="30" viewBox="0 0 140 30" fill="none" xmlns="http://www.w3.org/2000/svg">
<path d="M30.4352 16.5822C30.4352 12.3924 33.4925 9.56234 37.5694 9.56234C41.6462 9.56234 44.8165 12.3936 44.8165 16.5822C44.8165 20.7708 41.7027 23.6599 37.4563 23.6599H36.9755L35.843 19.4989H37.1174C39.0421 19.4989 40.4007 18.3099 40.4007 16.5835C40.4007 15.0554 39.3246 13.781 37.6258 13.781C36.0966 13.781 34.7945 14.8282 34.7945 16.7819V29.3225H30.4352V16.5835V16.5822Z" fill="#F7F7F7"/>
<path d="M46.298 16.532C46.298 12.3723 49.3905 9.56108 53.4937 9.56108C57.5969 9.56108 60.5776 12.3723 60.5776 16.532V23.5594H56.2484V16.7291C56.2484 14.7893 54.9552 13.7497 53.4372 13.7497C51.751 13.7497 50.6825 15.014 50.6825 16.532C50.6825 18.2471 52.0322 19.4273 53.9432 19.4273H55.2076L54.0826 23.5594H53.6042C49.388 23.5594 46.2955 20.6365 46.2955 16.532H46.298Z" fill="#F7F7F7"/>
<path d="M68.3872 9.56108H70.3459V13.7949H68.8769C67.7243 13.7949 67.1781 14.4578 67.1781 15.5225V23.5582H62.7422V15.1471C62.7422 11.8349 64.5854 9.55982 68.3872 9.55982V9.56108Z" fill="#F7F7F7"/>
<path d="M76.5095 17.0794V23.5607H72.0736V4.06042H76.5095V15.8992L81.0321 9.56234H86.2164L81.2041 16.36L86.4173 23.5607H81.0309L76.5083 17.0794H76.5095Z" fill="#F7F7F7"/>
<path d="M87.5812 16.5822C87.5812 12.3924 90.6385 9.56234 94.7153 9.56234C98.7921 9.56234 101.962 12.3936 101.962 16.5822C101.962 20.7708 98.8487 23.6599 94.6023 23.6599H94.1214L92.9889 19.4989H94.2633C96.1881 19.4989 97.5467 18.3099 97.5467 16.5835C97.5467 15.0554 96.4706 13.781 94.7718 13.781C93.2438 13.781 91.9405 14.8282 91.9405 16.7819V29.3225H87.5812V16.5835V16.5822Z" fill="#F7F7F7"/>
<path d="M103.737 6.27901C103.737 4.99581 104.752 4.06042 106.062 4.06042C107.371 4.06042 108.387 4.99581 108.387 6.27901C108.387 7.5622 107.398 8.52398 106.062 8.52398C104.726 8.52398 103.737 7.58857 103.737 6.27901ZM103.845 9.56109H108.28V23.5594H103.845V9.56109Z" fill="#F7F7F7"/>
<path d="M116.864 9.56108C120.603 9.56108 123.104 11.9504 123.104 15.8578V23.5594H118.775V15.8578C118.775 14.4528 118.044 13.7497 116.864 13.7497C115.683 13.7497 114.924 14.4528 114.924 15.8578V23.5594H110.594V15.8578C110.594 11.9504 113.096 9.56108 116.862 9.56108H116.864Z" fill="#F7F7F7"/>
<path d="M127.403 25.159H132.046C133.603 25.159 134.99 24.3102 134.99 22.4131V16.7794C134.99 14.8257 133.688 13.7785 132.159 13.7785C130.46 13.7785 129.384 15.0529 129.384 16.581C129.384 18.3074 130.743 19.4964 132.667 19.4964H133.942L132.809 23.6574H132.328C128.082 23.6574 124.968 20.713 124.968 16.5797C124.968 12.4464 128.082 9.55982 132.215 9.55982C136.349 9.55982 139.35 12.3911 139.35 16.5797V22.4118C139.35 26.8277 136.066 29.3187 132.131 29.3187H128.508L127.404 25.1578L127.403 25.159Z" fill="#F7F7F7"/>
<path d="M9.96556 16.6614C11.81 16.9037 13.7963 16.6475 15.2904 15.4798C17.4676 13.7785 18.4005 10.9121 18.1858 8.21887C17.7802 3.14386 12.7793 -0.507343 7.83232 0.0576636C3.06241 0.602581 -0.507136 5.05485 0.0591261 9.83229C0.201006 11.0339 0.597749 12.1978 1.20293 13.2437L10.3384 29.0262C10.5971 29.4745 11.2626 29.4091 11.4308 28.9182L13.2413 23.6172C13.3443 23.3146 13.3091 22.9819 13.1446 22.7082L9.72953 17.0179C9.62658 16.8472 9.76844 16.635 9.96808 16.6614H9.96556ZM9.58007 10.2692C8.01437 10.2805 6.73623 9.01995 6.72493 7.45551C6.71363 5.88981 7.97424 4.61164 9.53868 4.60034C11.1044 4.58904 12.3825 5.84962 12.3938 7.41406C12.4051 8.97976 11.1445 10.2579 9.58007 10.2692Z" fill="#2EFF7B"/>
</svg>
